<svg width="39" height="47" viewBox="0 0 39 47" fill="none" xmlns="http://www.w3.org/2000/svg">
<path d="M19.0422 -0.00012207C25.9125 -0.00012207 31.5466 5.37167 31.9698 12.135L31.9954 12.9531L31.9948 19.3099L32.7858 19.3106C35.7082 19.3106 38.0794 21.7078 38.0794 24.6562V41.417C38.0794 44.3654 35.7082 46.7626 32.7858 46.7626H5.28816C2.37616 46.7626 -0.000244141 44.3654 -0.000244141 41.417V24.6562C-0.000244141 21.7078 2.37096 19.3106 5.28816 19.3106L6.07975 19.3099L6.08376 12.9531C6.08376 6.08169 11.4565 0.448548 18.2237 0.0253941L19.0422 -0.00012207ZM19.0422 6.23988C15.5579 6.23988 12.681 8.90992 12.3546 12.3079L12.3238 12.9531L12.3148 19.3099H25.7498L25.7554 12.9531C25.7554 9.69074 23.4082 6.95893 20.3153 6.3613L19.6872 6.27071L19.0422 6.23988Z" fill="#2DA15D"/>
<path d="M14 30C14 27.2386 16.2386 25 19 25C21.7614 25 24 27.2386 24 30C24 32.7614 21.7614 35 19 35C16.2386 35 14 32.7614 14 30Z" fill="white"/>
<path d="M17 35C17 33.8954 17.8954 33 19 33C20.1046 33 21 33.8954 21 35V39C21 40.1046 20.1046 41 19 41C17.8954 41 17 40.1046 17 39V35Z" fill="white"/>
</svg>
