<svg width="10" height="5" viewBox="0 0 10 5" fill="none" xmlns="http://www.w3.org/2000/svg">
<path d="M1.32925 0.123712C1.12143 -0.0581294 0.805553 -0.0370706 0.623712 0.170748C0.441871 0.378566 0.462929 0.694447 0.670748 0.876288L1.32925 0.123712ZM5 4L4.67075 4.37629C4.85926 4.54124 5.14074 4.54124 5.32925 4.37629L5 4ZM9.32925 0.876288C9.53707 0.694447 9.55813 0.378566 9.37629 0.170748C9.19445 -0.0370706 8.87857 -0.0581294 8.67075 0.123712L9.32925 0.876288ZM0.670748 0.876288L4.67075 4.37629L5.32925 3.62371L1.32925 0.123712L0.670748 0.876288ZM5.32925 4.37629L9.32925 0.876288L8.67075 0.123712L4.67075 3.62371L5.32925 4.37629Z" fill="#BDBDBD"/>
</svg>
