<svg width="39" height="39" viewBox="0 0 39 39" fill="none" xmlns="http://www.w3.org/2000/svg">
<path d="M19.2878 38.5757C29.9402 38.5757 38.5757 29.9402 38.5757 19.2878C38.5757 8.63545 29.9402 0 19.2878 0C8.63545 0 0 8.63545 0 19.2878C0 29.9402 8.63545 38.5757 19.2878 38.5757Z" fill="#55ACEE"/>
<path d="M31.1025 13.8616C30.2759 14.2281 29.3868 14.476 28.4544 14.5867C29.4064 14.0163 30.137 13.1138 30.4819 12.0366C29.591 12.5651 28.6039 12.9484 27.5542 13.1551C26.7132 12.2594 25.515 11.6996 24.1882 11.6996C21.6425 11.6996 19.5779 13.7643 19.5779 16.31C19.5779 16.6713 19.6188 17.0231 19.6979 17.3607C15.8663 17.1685 12.469 15.3332 10.1949 12.543C9.79814 13.2238 9.57053 14.0163 9.57053 14.8611C9.57053 16.4602 10.385 17.872 11.6214 18.6985C10.8661 18.6748 10.1547 18.4675 9.5334 18.1212C9.53305 18.1408 9.53305 18.1604 9.53305 18.1797C9.53305 20.4135 11.1229 22.2767 13.2316 22.6999C12.8451 22.8058 12.437 22.8619 12.0172 22.8619C11.7194 22.8619 11.431 22.8333 11.1497 22.7797C11.7363 24.6109 13.4385 25.9439 15.4564 25.9814C13.8783 27.2181 11.8907 27.9549 9.73006 27.9549C9.35873 27.9549 8.99084 27.9333 8.63086 27.8903C10.6701 29.1989 13.094 29.9618 15.6975 29.9618C24.1775 29.9618 28.815 22.9368 28.815 16.8439C28.815 16.6442 28.8106 16.4451 28.8016 16.2477C29.7031 15.5979 30.4846 14.7862 31.1025 13.8616Z" fill="#F1F2F2"/>
</svg>
