<svg width="40" height="39" viewBox="0 0 40 39" fill="none" xmlns="http://www.w3.org/2000/svg">
<path d="M1.56738 37.9083L4.18604 28.3457C2.5704 25.5472 1.72108 22.3722 1.722 19.1203C1.726 8.94569 10.0062 0.667969 20.1799 0.667969C25.1178 0.670121 29.7523 2.59193 33.2366 6.07988C36.7218 9.56784 38.6399 14.2042 38.6381 19.1348C38.6338 29.3097 30.3533 37.5883 20.1808 37.5883C20.1799 37.5883 20.1811 37.5883 20.1808 37.5883H20.1725C17.0835 37.5871 14.048 36.8119 11.3522 35.3425L1.56738 37.9083Z" fill="#64B161"/>
<path d="M0.902344 38.5757L3.61476 28.6706C1.94163 25.7716 1.06157 22.4831 1.0628 19.1142C1.0671 8.57466 9.64391 0 20.1831 0C25.2975 0.00215175 30.098 1.99281 33.708 5.60588C37.3177 9.21895 39.3049 14.0216 39.3031 19.1295C39.2985 29.6687 30.7204 38.2446 20.1831 38.2446C20.1825 38.2446 20.1834 38.2446 20.1831 38.2446H20.1748C16.9749 38.2434 13.8309 37.4408 11.0382 35.9176L0.902344 38.5757ZM11.5076 32.4574L12.0883 32.8013C14.5277 34.2491 17.3247 35.0148 20.177 35.0164H20.1831C28.9419 35.0164 36.0709 27.8886 36.0746 19.1283C36.0761 14.8829 34.4248 10.8908 31.4244 7.88795C28.4236 4.88505 24.434 3.23037 20.1889 3.22852C11.4231 3.22852 4.2944 10.3554 4.29102 19.1154C4.28979 22.1174 5.12958 25.0406 6.72063 27.5705L7.09872 28.1717L5.49291 34.0343L11.5076 32.4574Z" fill="white"/>
<path fill-rule="evenodd" clip-rule="evenodd" d="M15.4043 11.1232C15.0465 10.3277 14.6696 10.3117 14.329 10.2979C14.0505 10.2859 13.7318 10.2865 13.4136 10.2865C13.0952 10.2865 12.5775 10.4064 12.1398 10.8844C11.7018 11.3624 10.4673 12.5182 10.4673 14.8688C10.4673 17.2197 12.1794 19.491 12.4183 19.8101C12.6571 20.1288 15.7234 25.1067 20.5792 27.0218C24.6149 28.6134 25.436 28.2968 26.312 28.2172C27.1881 28.1376 29.1385 27.0614 29.5366 25.9459C29.9349 24.8304 29.9349 23.8744 29.8154 23.6743C29.6958 23.4754 29.3773 23.3558 28.8996 23.117C28.422 22.8781 26.0732 21.722 25.6352 21.5628C25.1971 21.4033 24.8787 21.324 24.5602 21.8023C24.2414 22.28 23.3267 23.3558 23.0479 23.6743C22.769 23.9937 22.4902 24.0336 22.0126 23.7945C21.5349 23.555 19.9961 23.0509 18.1708 21.4233C16.7507 20.1571 15.7916 18.5931 15.5128 18.1148C15.2343 17.6371 15.5082 17.4011 15.7227 17.1401C16.1091 16.6701 16.7574 15.8251 16.9166 15.5066C17.0759 15.1875 16.9963 14.9087 16.877 14.6696C16.7574 14.4307 15.8288 12.0681 15.4043 11.1232Z" fill="white"/>
</svg>
